<svg width="524" height="228" viewBox="0 0 524 228" fill="none" xmlns="http://www.w3.org/2000/svg">
<rect x="5" y="5" width="514" height="218" rx="52.3772" fill="#11101F"/>
<rect x="5" y="5" width="514" height="218" rx="52.3772" stroke="#2A2640" stroke-width="10"/>
<path d="M192.842 127.249C190.61 127.249 189.122 126.542 188.378 125.129C187.708 123.79 187.374 122.302 187.374 120.665C187.374 118.731 187.745 116.462 188.489 113.858C189.308 111.18 190.312 108.464 191.502 105.712C192.767 102.885 194.032 100.207 195.297 97.6771C196.636 95.1477 197.789 93.0274 198.756 91.3164C199.426 90.2004 200.504 88.3406 201.992 85.7367C203.554 83.0585 205.266 80.0455 207.125 76.6977C209.06 73.3499 210.92 70.0394 212.705 66.766C214.491 63.4182 215.941 60.4796 217.057 57.9502C218.247 55.4207 218.843 53.7096 218.843 52.8169C218.843 50.6594 218.061 49.1715 216.499 48.3532C215.011 47.5348 213.189 47.1257 211.031 47.1257C207.609 47.1257 203.666 47.8696 199.202 49.3575C194.739 50.771 190.201 52.7053 185.588 55.1603C181.05 57.6154 176.809 60.4424 172.866 63.6414C168.998 66.766 165.873 70.0394 163.493 73.4615C161.112 76.8837 159.922 80.2315 159.922 83.5049C159.922 85.1416 160.405 86.4063 161.372 87.299C162.34 88.1174 163.567 88.6753 165.055 88.9729C166.543 89.1961 168.068 89.3077 169.63 89.3077C171.341 89.3077 172.978 89.1217 174.54 88.7497C176.177 88.3778 177.739 87.9314 179.227 87.4106C179.376 87.3362 179.525 87.299 179.674 87.299C179.822 87.2246 179.971 87.1874 180.12 87.1874C181.31 87.1874 181.905 87.7082 181.905 88.7497C181.905 89.4193 181.348 90.0144 180.232 90.5352C179.116 90.9816 177.777 91.3536 176.214 91.6511C174.726 91.9487 173.276 92.1719 171.862 92.3207C170.449 92.4695 169.444 92.5439 168.849 92.5439C166.692 92.5439 164.571 92.2835 162.488 91.7627C160.48 91.1676 158.843 90.2376 157.578 88.9729C156.314 87.6338 155.681 85.8483 155.681 83.6165C155.681 81.3846 156.276 79.0784 157.467 76.6977C158.583 74.3171 159.847 72.1968 161.261 70.3369C163.046 67.9563 165.315 65.5757 168.068 63.195C170.895 60.8144 173.871 58.5825 176.995 56.4995C180.12 54.4164 183.059 52.6681 185.811 51.2546C188.117 49.9899 190.721 48.7996 193.623 47.6836C196.598 46.5677 199.611 45.675 202.662 45.0054C205.712 44.2615 208.613 43.8895 211.366 43.8895C214.639 43.8895 217.318 44.559 219.401 45.8982C221.484 47.2373 222.525 49.4691 222.525 52.5937V52.8169C222.525 54.0072 221.93 55.9415 220.74 58.6197C219.624 61.2235 218.173 64.1993 216.388 67.5471C214.677 70.8949 212.854 74.2799 210.92 77.7021C208.985 81.0498 207.2 84.1 205.563 86.8527C204.001 89.5309 202.848 91.5023 202.104 92.7671C201.211 94.1806 200.132 96.1148 198.868 98.5699C197.677 100.951 196.487 103.517 195.297 106.27C194.106 109.022 193.102 111.663 192.284 114.193C191.54 116.648 191.168 118.657 191.168 120.219C191.168 121.037 191.354 121.818 191.726 122.562C192.098 123.381 192.879 123.79 194.069 123.79C196.003 123.79 198.384 122.86 201.211 121C204.038 119.215 207.014 116.945 210.138 114.193C213.337 111.366 216.425 108.427 219.401 105.377C222.376 102.252 225.017 99.3882 227.324 96.7844C229.704 94.1806 231.415 92.2091 232.457 90.87C232.755 89.6053 233.238 87.9686 233.908 85.9599C234.652 83.8769 235.544 81.6822 236.586 79.3759C237.702 77.0697 238.929 74.9122 240.268 72.9036C241.682 70.8205 243.17 69.1466 244.732 67.8819C246.294 66.5428 247.931 65.8732 249.642 65.8732C250.237 65.8732 250.87 66.022 251.539 66.3196C252.209 66.5428 252.544 66.9892 252.544 67.6587C252.544 67.9563 252.506 68.1795 252.432 68.3283C250.349 72.4944 247.857 76.5861 244.955 80.6035C242.054 84.6208 239.078 88.4893 236.028 92.2091C235.73 93.8458 235.47 95.4825 235.247 97.1192C235.098 98.7559 235.024 100.43 235.024 102.141C235.024 104.521 235.321 106.865 235.916 109.171C236.511 111.403 237.665 113.263 239.376 114.751C241.087 116.239 243.616 116.983 246.964 116.983C250.833 116.983 254.515 116.016 258.012 114.081C261.508 112.073 264.447 109.804 266.827 107.274C269.878 104.15 272.593 100.504 274.974 96.338C277.429 92.1719 279.363 87.857 280.777 83.3933C282.264 78.8552 283.008 74.5403 283.008 70.4485C283.008 68.1423 282.711 66.0592 282.116 64.1994C281.52 62.3395 280.07 60.7028 277.764 59.2893C277.168 58.9173 276.871 58.4709 276.871 57.9502C276.871 57.5782 277.02 57.2062 277.317 56.8342C277.689 56.4623 278.136 56.2763 278.656 56.2763C278.954 56.2763 279.251 56.3507 279.549 56.4995C282.376 57.8386 284.273 59.7728 285.24 62.3023C286.207 64.8317 286.691 67.3983 286.691 70.0022C286.691 73.4243 286.059 77.3673 284.794 81.831C283.604 86.2203 281.818 90.684 279.437 95.2221C277.131 99.6858 274.341 103.815 271.068 107.609C267.795 111.403 264.075 114.49 259.909 116.871C255.817 119.177 251.39 120.33 246.629 120.33C243.133 120.33 240.343 119.586 238.26 118.099C236.177 116.611 234.614 114.676 233.573 112.296C232.606 109.915 231.973 107.423 231.676 104.819C231.453 102.141 231.378 99.6486 231.453 97.3424C230.188 98.8303 228.402 100.802 226.096 103.257C223.864 105.712 221.298 108.316 218.396 111.068C215.569 113.821 212.631 116.425 209.58 118.88C206.53 121.335 203.554 123.343 200.653 124.906C197.826 126.468 195.222 127.249 192.842 127.249ZM299.383 75.4702C299.011 75.4702 298.602 75.3958 298.155 75.247C297.709 75.0982 297.486 74.7635 297.486 74.2427C297.486 73.8707 297.597 73.5359 297.821 73.2384C298.416 72.1224 299.494 71.1553 301.057 70.3369C302.693 69.5186 303.921 69.1094 304.739 69.1094C305.111 69.1094 305.52 69.221 305.967 69.4442C306.413 69.593 306.636 69.9278 306.636 70.4485C306.636 71.7133 305.855 72.8664 304.293 73.9079C302.805 74.9494 301.168 75.4702 299.383 75.4702ZM286.884 121.112C284.355 121.112 282.346 120.405 280.858 118.991C279.371 117.578 278.627 115.606 278.627 113.077C278.627 111.589 278.775 110.138 279.073 108.725C279.371 107.237 279.78 105.786 280.301 104.373C280.598 103.554 281.193 102.215 282.086 100.355C283.053 98.4211 284.169 96.4124 285.434 94.3294C286.698 92.1719 287.926 90.3492 289.116 88.8613C290.307 87.3734 291.348 86.6295 292.241 86.6295C292.613 86.6295 293.096 86.7783 293.692 87.0758C294.361 87.299 294.696 87.671 294.696 88.1918C294.696 88.4893 294.547 88.8613 294.25 89.3077C292.539 91.242 290.753 93.5482 288.893 96.2264C287.033 98.9047 285.471 101.694 284.206 104.596C282.942 107.497 282.309 110.287 282.309 112.965C282.309 116.388 283.946 118.099 287.219 118.099C289.451 118.099 291.683 117.02 293.915 114.862C296.221 112.705 298.751 109.804 301.503 106.158C302.321 105.117 303.028 104.112 303.623 103.145C304.293 102.104 304.888 101.211 305.409 100.467C305.93 99.9462 306.488 99.6858 307.083 99.6858C307.975 99.6858 308.422 100.021 308.422 100.69C308.422 101.508 307.827 102.81 306.636 104.596C305.446 106.381 304.107 108.241 302.619 110.176C299.718 113.746 297.188 116.462 295.031 118.322C292.873 120.182 290.158 121.112 286.884 121.112ZM311.882 121.112C308.906 121.112 306.86 120.219 305.745 118.433C304.629 116.648 304.071 114.49 304.071 111.961C304.071 109.134 304.517 105.898 305.41 102.252C306.377 98.6071 307.604 94.8129 309.092 90.87C310.655 86.927 312.403 83.0585 314.337 79.2644C316.271 75.4702 318.243 72.0108 320.252 68.8862C322.26 65.7616 324.157 63.195 325.943 61.1863C327.505 59.4753 328.993 58.1733 330.406 57.2806C331.894 56.3135 333.457 55.5323 335.093 54.9372C336.209 54.4908 337.325 54.2676 338.441 54.2676C339.929 54.2676 341.194 54.6396 342.235 55.3835C343.351 56.1275 343.909 57.355 343.909 59.0661C343.909 60.7028 343.314 62.5999 342.124 64.7573C340.933 66.8404 339.445 68.9606 337.66 71.1181C335.875 73.2756 334.052 75.2842 332.192 77.1441C330.332 79.004 328.695 80.5291 327.282 81.7194C324.157 84.3232 321.144 86.7783 318.243 89.0845C315.341 91.3164 312.924 93.5854 310.989 95.8917C309.948 98.7931 309.129 101.62 308.534 104.373C307.939 107.051 307.642 109.469 307.642 111.626C307.642 113.56 307.976 115.16 308.646 116.425C309.39 117.689 310.655 118.322 312.44 118.322C314.226 118.322 315.937 117.764 317.573 116.648C319.21 115.458 320.772 113.97 322.26 112.184C323.823 110.399 325.236 108.613 326.501 106.828C327.393 105.563 328.249 104.335 329.067 103.145C329.96 101.88 330.667 100.876 331.188 100.132C331.485 99.6114 331.969 99.351 332.638 99.351C333.457 99.351 333.866 99.7602 333.866 100.579C333.866 101.099 333.643 101.769 333.196 102.587C332.304 104.075 331.15 105.861 329.737 107.944C328.323 110.027 326.724 112.073 324.938 114.081C323.153 116.09 321.144 117.764 318.912 119.103C316.755 120.442 314.412 121.112 311.882 121.112ZM328.621 63.4182C326.984 65.2037 325.236 67.5099 323.376 70.3369C321.591 73.164 319.805 76.2886 318.02 79.7107C316.234 83.1329 314.598 86.5923 313.11 90.0888C315.49 87.9314 317.648 86.1087 319.582 84.6208C321.516 83.0585 323.451 81.4218 325.385 79.7107C327.096 78.2228 328.919 76.4001 330.853 74.2427C332.862 72.0108 334.721 69.7046 336.432 67.3239C338.144 64.9433 339.334 62.7486 340.003 60.74C340.227 59.9216 340.338 59.2893 340.338 58.8429C340.338 57.6526 339.743 57.0574 338.553 57.0574C338.255 57.0574 337.92 57.0946 337.548 57.169C337.251 57.2434 336.916 57.355 336.544 57.5038C335.205 58.0246 333.866 58.7685 332.527 59.7356C331.262 60.7028 329.96 61.9303 328.621 63.4182ZM333.368 122.116C329.723 122.116 326.933 121.372 324.999 119.884C323.064 118.396 322.097 116.834 322.097 115.197C322.097 114.007 322.618 112.965 323.659 112.073C324.627 111.105 326.301 110.622 328.681 110.622C330.169 110.622 331.955 110.845 334.038 111.291C335.6 111.663 337.237 112.147 338.948 112.742C340.733 113.337 342.556 113.598 344.416 113.523C344.936 112.705 345.234 112.035 345.308 111.515C345.383 110.994 345.42 110.362 345.42 109.618C345.42 107.163 345.011 105.117 344.193 103.48C343.449 101.843 342.556 100.244 341.514 98.6815C340.547 97.1192 339.729 95.2221 339.059 92.9902C338.092 94.6269 336.865 96.7844 335.377 99.4626C333.889 102.066 331.434 105.637 328.012 110.176C327.788 110.547 327.342 110.733 326.672 110.733C325.557 110.733 324.999 110.25 324.999 109.283C324.999 109.06 325.185 108.725 325.557 108.278C325.854 107.832 326.598 106.679 327.788 104.819C329.128 102.662 330.69 100.244 332.475 97.5655C334.261 94.8129 335.972 91.7999 337.609 88.5265C337.683 87.2618 337.943 86.0343 338.39 84.844C338.836 83.6537 339.357 82.5749 339.952 81.6078C340.77 80.2687 341.626 79.3016 342.519 78.7064C343.411 78.0368 344.23 77.7021 344.974 77.7021C346.387 77.7021 347.094 78.5204 347.094 80.1571C347.094 81.273 346.648 82.7237 345.755 84.5092C345.234 85.6251 344.564 86.5923 343.746 87.4106C342.928 88.1546 342.221 88.8241 341.626 89.4193C341.775 91.2792 342.221 92.9531 342.965 94.441C343.709 95.9289 344.527 97.3796 345.42 98.7931C346.387 100.207 347.206 101.732 347.875 103.368C348.545 105.005 348.879 106.977 348.879 109.283C348.879 110.771 348.619 112.147 348.098 113.412C349.735 113.486 351.409 112.891 353.12 111.626C354.905 110.287 356.579 108.576 358.142 106.493C359.778 104.41 361.229 102.29 362.494 100.132C362.866 99.6114 363.349 99.351 363.944 99.351C364.316 99.351 364.688 99.4626 365.06 99.6858C365.432 99.909 365.618 100.281 365.618 100.802C365.618 101.099 365.507 101.471 365.284 101.918C363.126 105.786 361.043 108.799 359.034 110.957C357.1 113.04 355.129 114.49 353.12 115.309C351.111 116.127 348.879 116.611 346.424 116.759C344.564 118.471 342.556 119.81 340.398 120.777C338.315 121.67 335.972 122.116 333.368 122.116ZM332.81 119.438C334.521 119.438 336.009 119.177 337.274 118.657C338.538 118.136 339.915 117.392 341.403 116.425C339.84 116.202 338.538 115.941 337.497 115.644C336.455 115.272 335.116 114.9 333.48 114.528C331.397 114.081 329.76 113.858 328.57 113.858C326.412 113.858 325.333 114.379 325.333 115.42C325.333 116.239 326.04 117.131 327.454 118.099C328.867 118.991 330.653 119.438 332.81 119.438ZM368.542 123.567C366.534 123.567 364.934 123.046 363.744 122.004C362.554 120.963 361.661 119.698 361.066 118.21C360.545 116.648 360.285 115.197 360.285 113.858C360.285 112.073 360.619 110.101 361.289 107.944C361.958 105.712 362.554 104.187 363.074 103.368C363.074 103.145 363.037 102.922 362.963 102.699C362.963 102.401 362.963 102.141 362.963 101.918C362.963 99.909 363.26 97.8259 363.856 95.6685C364.525 93.139 365.715 90.8328 367.426 88.7497C369.138 86.5923 371.258 84.844 373.787 83.5049C376.391 82.1658 379.218 81.4962 382.268 81.4962C385.839 81.4962 388.592 82.4633 390.526 84.3976C392.46 86.2575 393.428 88.7125 393.428 91.7627C393.428 96.0032 392.646 99.6486 391.084 102.699C389.596 105.749 387.997 108.688 386.286 111.515C385.988 112.11 385.728 112.593 385.504 112.965C385.281 113.337 385.504 113.523 386.174 113.523C388.331 113.523 390.452 112.631 392.535 110.845C394.618 109.06 397.259 105.675 400.458 100.69C400.681 100.318 400.904 100.021 401.127 99.7974C401.351 99.5742 401.685 99.4626 402.132 99.4626H402.355C403.173 99.4626 403.657 99.9462 403.806 100.913C403.806 101.137 403.731 101.397 403.582 101.694C401.723 104.968 399.826 107.795 397.891 110.176C396.031 112.556 393.8 114.379 391.196 115.644C388.592 116.834 385.318 117.466 381.376 117.541C379.813 119.029 377.879 120.405 375.573 121.67C373.341 122.934 370.997 123.567 368.542 123.567ZM379.255 113.3H380.371C381.934 111.44 383.421 109.32 384.835 106.939C386.323 104.559 387.513 102.104 388.406 99.5742C389.299 96.9704 389.745 94.5153 389.745 92.2091C389.745 90.0516 389.187 88.229 388.071 86.7411C386.955 85.1788 385.021 84.3976 382.268 84.3976C380.408 84.3976 378.586 84.8068 376.8 85.6251C375.089 86.3691 373.601 87.299 372.337 88.4149L372.671 88.8613C372.82 88.7869 373.043 88.7497 373.341 88.7497C373.787 88.7497 374.196 88.9357 374.568 89.3077C374.94 89.6053 375.126 89.9401 375.126 90.312C375.126 90.5352 375.089 90.7212 375.015 90.87C374.94 91.0188 374.829 91.1676 374.68 91.3164C373.415 93.1762 372.188 94.9245 370.997 96.5612C369.807 98.1979 368.691 100.058 367.65 102.141C367.426 102.662 367.166 103.182 366.869 103.703C367.464 106.456 368.84 108.762 370.997 110.622C373.229 112.407 375.982 113.3 379.255 113.3ZM369.212 120.442C370.7 120.442 372.188 119.996 373.676 119.103C375.164 118.136 376.428 117.243 377.47 116.425C371.816 115.83 367.65 113.337 364.971 108.948C364.897 109.469 364.748 110.25 364.525 111.291C364.302 112.333 364.19 113.375 364.19 114.416C364.19 115.904 364.525 117.28 365.195 118.545C365.864 119.81 367.203 120.442 369.212 120.442ZM406.684 121.335C406.312 121.335 405.903 121.223 405.457 121C405.011 120.777 404.787 120.479 404.787 120.107C404.787 119.512 404.899 118.991 405.122 118.545C405.94 116.759 406.982 114.565 408.247 111.961C409.586 109.357 410.888 106.679 412.152 103.926C413.492 101.099 414.607 98.4583 415.5 96.0033C416.467 93.5482 416.951 91.5767 416.951 90.0888C416.951 89.6425 416.839 89.2333 416.616 88.8613C416.467 88.415 416.095 88.1918 415.5 88.1918C414.607 88.1918 413.715 88.5637 412.822 89.3077C412.004 90.0516 411.26 90.9072 410.59 91.8743C409.921 92.7671 409.363 93.511 408.916 94.1062C407.428 96.1148 406.164 97.9747 405.122 99.6858C404.081 101.322 403.002 102.959 401.886 104.596C400.844 106.158 399.542 107.906 397.98 109.841C397.757 110.138 397.497 110.399 397.199 110.622C396.976 110.771 396.641 110.845 396.195 110.845C395.748 110.845 395.376 110.622 395.079 110.176C394.707 109.729 394.632 109.32 394.856 108.948C396.492 106.344 398.092 103.889 399.654 101.583C401.216 99.2022 402.593 97.1564 403.783 95.4453C404.973 93.7342 405.792 92.5811 406.238 91.9859C407.503 90.3492 408.805 88.7869 410.144 87.299C411.557 85.8111 413.454 85.0672 415.835 85.0672C417.844 85.0672 419.22 85.6251 419.964 86.7411C420.782 87.857 421.191 89.1589 421.191 90.6468C421.191 93.325 420.076 96.7844 417.844 101.025C420.596 98.1235 423.535 95.4825 426.659 93.1018C429.858 90.7212 432.834 88.7497 435.587 87.1874C438.34 85.5507 440.423 84.5464 441.836 84.1744C442.506 83.9512 443.175 83.7653 443.845 83.6165C444.589 83.4677 445.258 83.3933 445.853 83.3933C446.597 83.3933 447.193 83.5793 447.639 83.9512C448.16 84.3232 448.42 85.03 448.42 86.0715C448.42 87.113 447.75 88.6009 446.411 90.5352C445.072 92.3951 443.436 94.5525 441.501 97.0076C439.641 99.3882 437.856 101.806 436.145 104.261C434.434 106.716 433.206 109.022 432.462 111.18C432.239 111.701 432.09 112.221 432.016 112.742C431.942 113.189 431.904 113.598 431.904 113.97C431.904 115.978 432.834 116.983 434.694 116.983C435.884 116.983 437.372 116.388 439.158 115.197C440.199 114.528 441.204 113.784 442.171 112.965C443.212 112.073 443.994 111.291 444.514 110.622C445.63 109.357 446.523 108.278 447.193 107.386C447.936 106.493 448.643 105.526 449.313 104.484C450.057 103.368 450.987 101.992 452.103 100.355C452.326 99.9834 452.549 99.723 452.772 99.5742C452.995 99.4254 453.367 99.351 453.888 99.351C454.706 99.351 455.116 99.8718 455.116 100.913C455.116 101.36 454.781 102.141 454.111 103.257C453.442 104.298 452.623 105.489 451.656 106.828C450.763 108.092 449.871 109.283 448.978 110.399C448.16 111.44 447.565 112.184 447.193 112.631C446.374 113.598 445.333 114.602 444.068 115.644C442.878 116.685 441.65 117.578 440.385 118.322C439.195 118.991 437.968 119.475 436.703 119.772C435.438 120.07 434.211 120.219 433.02 120.219C431.086 120.219 429.672 119.661 428.78 118.545C427.961 117.429 427.552 116.239 427.552 114.974C427.552 113.04 428.185 110.845 429.449 108.39C430.788 105.861 432.351 103.368 434.136 100.913C435.996 98.3839 437.707 96.1148 439.269 94.1062C440.906 92.0975 442.022 90.6468 442.617 89.7541C442.766 89.5309 442.878 89.3449 442.952 89.1961C443.026 88.9729 443.064 88.7869 443.064 88.6381C443.064 88.043 442.617 87.7454 441.724 87.7454C441.278 87.7454 440.757 87.857 440.162 88.0802C437.112 89.3449 433.913 91.2048 430.565 93.6598C427.292 96.1148 424.242 98.7931 421.415 101.694C418.662 104.521 416.467 107.2 414.831 109.729L410.367 116.759C409.995 117.355 409.66 117.987 409.363 118.657C409.065 119.252 408.73 119.847 408.358 120.442C407.912 121.037 407.354 121.335 406.684 121.335Z" fill="white"/>
<path d="M65.0787 153.934V152.798H72.058V153.934L70.3538 154.299L72.8898 161.725L75.365 152.798H78.0634L81.0661 161.745L83.0341 154.381L81.3907 153.934V152.798H86.5034V153.934L84.6369 154.381L81.1878 167.142H79.2199L75.8114 156.876L72.9101 167.142H71.0639L66.8438 154.36L65.0787 153.934ZM94.3115 167V165.864L96.178 165.417V154.381L94.3115 153.934V152.798H105.085V156.957H103.888L103.076 154.36H99.4851V159.067L103.259 158.722V160.731L99.4851 160.427V165.438H103.117L104.496 162.618H105.693L105.085 167H94.3115ZM114.192 167V165.864L116.058 165.417V154.381L114.192 153.934V152.798H120.4C121.983 152.798 123.241 153.075 124.174 153.63C125.107 154.171 125.574 155.043 125.574 156.247C125.574 156.977 125.31 157.64 124.782 158.235C124.255 158.817 123.633 159.196 122.916 159.372V159.432C124.039 159.635 124.931 160.055 125.594 160.69C126.257 161.312 126.588 162.083 126.588 163.003C126.588 164.207 126.074 165.174 125.046 165.904C124.018 166.635 122.72 167 121.151 167H114.192ZM119.365 165.56H120.076C122.172 165.56 123.22 164.707 123.22 163.003C123.22 162.178 122.963 161.536 122.449 161.076C121.949 160.616 121.191 160.386 120.177 160.386H119.365V165.56ZM119.365 158.905H119.649C120.366 158.905 120.968 158.688 121.455 158.256C121.956 157.823 122.206 157.214 122.206 156.43C122.206 154.969 121.313 154.239 119.528 154.239H119.365V158.905ZM146.622 167V165.864L148.488 165.417V154.381L146.622 153.934V152.798H152.708C155.17 152.798 157.05 153.454 158.349 154.766C159.661 156.064 160.317 157.775 160.317 159.899C160.317 162.158 159.627 163.909 158.247 165.154C156.868 166.385 155.021 167 152.708 167H146.622ZM151.795 165.438H152.404C153.878 165.438 155.001 164.958 155.772 163.997C156.556 163.037 156.949 161.671 156.949 159.899C156.949 158.114 156.556 156.748 155.772 155.801C155.001 154.84 153.878 154.36 152.404 154.36H151.795V165.438ZM168.701 167V165.864L170.568 165.417V154.381L168.701 153.934V152.798H179.475V156.957H178.278L177.466 154.36H173.875V159.067L177.649 158.722V160.731L173.875 160.427V165.438H177.507L178.886 162.618H180.083L179.475 167H168.701ZM188.906 166.351V162.618H190.043L191.077 165.458C191.645 165.661 192.356 165.762 193.208 165.762C194.127 165.762 194.919 165.6 195.581 165.275C196.258 164.951 196.596 164.471 196.596 163.835C196.596 163.686 196.576 163.544 196.535 163.409C196.508 163.274 196.454 163.145 196.373 163.023C196.291 162.902 196.21 162.794 196.129 162.699C196.048 162.591 195.926 162.482 195.764 162.374C195.602 162.252 195.46 162.158 195.338 162.09C195.216 162.009 195.034 161.908 194.79 161.786C194.56 161.664 194.148 161.461 193.553 161.177L192.822 160.832C191.483 160.183 190.523 159.507 189.941 158.803C189.36 158.087 189.069 157.207 189.069 156.166C189.069 155.057 189.529 154.171 190.448 153.508C191.368 152.832 192.558 152.494 194.019 152.494C195.656 152.494 197.13 152.703 198.442 153.123V156.856H197.306L196.312 154.137C195.757 154.015 195.223 153.954 194.709 153.954C193.911 153.954 193.228 154.096 192.66 154.381C192.092 154.651 191.808 155.05 191.808 155.578C191.808 156.051 192.031 156.45 192.477 156.775C192.937 157.086 193.749 157.498 194.912 158.012L195.318 158.195C196.697 158.817 197.712 159.507 198.361 160.264C199.01 161.022 199.335 161.941 199.335 163.023C199.335 164.038 199.078 164.87 198.564 165.519C198.063 166.155 197.401 166.615 196.576 166.899C195.75 167.169 194.81 167.304 193.755 167.304C192.078 167.304 190.462 166.986 188.906 166.351ZM207.907 167V165.864L209.774 165.417V154.381L207.907 153.934V152.798H214.948V153.934L213.081 154.381V165.417L214.948 165.864V167H207.907ZM231.225 152.494C232.646 152.494 233.964 152.757 235.182 153.285V157.038H234.046L233.112 154.036C232.747 153.982 232.375 153.954 231.996 153.954C230.36 153.954 229.075 154.462 228.142 155.476C227.208 156.491 226.742 157.965 226.742 159.899C226.742 163.862 228.358 165.844 231.591 165.844C231.794 165.844 231.99 165.837 232.179 165.823V161.968L229.866 161.258V160.325H236.987V161.258L235.486 161.968V166.31C235.216 166.445 234.898 166.574 234.533 166.696C234.167 166.817 233.775 166.919 233.356 167C232.936 167.095 232.51 167.169 232.078 167.223C231.645 167.277 231.225 167.304 230.82 167.304C228.426 167.304 226.586 166.662 225.301 165.377C224.016 164.092 223.374 162.266 223.374 159.899C223.374 157.532 224.05 155.706 225.403 154.421C226.755 153.136 228.696 152.494 231.225 152.494ZM245.073 167V165.864L246.939 165.417V154.381L245.073 153.934V152.798H248.562L257.266 162.334V154.381L255.4 153.934V152.798H260.817V153.934L258.95 154.381V167H256.982L248.562 157.789V165.417L250.429 165.864V167H245.073ZM315.084 167V165.864L316.951 165.417V154.381L315.084 153.934V152.798H322.124V153.934L320.258 154.381V159.047H325.309V154.381L323.443 153.934V152.798H330.483V153.934L328.616 154.381V165.417L330.483 165.864V167H323.443V165.864L325.309 165.417V160.609H320.258V165.417L322.124 165.864V167H315.084ZM338.911 159.899C338.911 157.708 339.513 155.929 340.717 154.563C341.934 153.184 343.666 152.494 345.911 152.494C348.129 152.494 349.847 153.17 351.064 154.523C352.295 155.875 352.911 157.667 352.911 159.899C352.911 162.117 352.295 163.909 351.064 165.275C349.847 166.628 348.129 167.304 345.911 167.304C343.693 167.304 341.968 166.635 340.737 165.296C339.52 163.943 338.911 162.144 338.911 159.899ZM345.911 165.904C347.088 165.904 347.98 165.384 348.589 164.342C349.198 163.287 349.502 161.806 349.502 159.899C349.502 157.992 349.191 156.518 348.569 155.476C347.96 154.421 347.074 153.894 345.911 153.894C344.734 153.894 343.842 154.421 343.233 155.476C342.624 156.518 342.32 157.992 342.32 159.899C342.32 161.806 342.617 163.287 343.213 164.342C343.821 165.384 344.721 165.904 345.911 165.904ZM361.866 166.351V162.618H363.002L364.037 165.458C364.605 165.661 365.315 165.762 366.167 165.762C367.087 165.762 367.878 165.6 368.541 165.275C369.217 164.951 369.556 164.471 369.556 163.835C369.556 163.686 369.535 163.544 369.495 163.409C369.468 163.274 369.413 163.145 369.332 163.023C369.251 162.902 369.17 162.794 369.089 162.699C369.008 162.591 368.886 162.482 368.724 162.374C368.561 162.252 368.419 162.158 368.298 162.09C368.176 162.009 367.993 161.908 367.75 161.786C367.52 161.664 367.107 161.461 366.512 161.177L365.782 160.832C364.443 160.183 363.482 159.507 362.901 158.803C362.319 158.087 362.028 157.207 362.028 156.166C362.028 155.057 362.488 154.171 363.408 153.508C364.328 152.832 365.518 152.494 366.979 152.494C368.615 152.494 370.09 152.703 371.402 153.123V156.856H370.266L369.271 154.137C368.717 154.015 368.183 153.954 367.669 153.954C366.871 153.954 366.188 154.096 365.62 154.381C365.051 154.651 364.767 155.05 364.767 155.578C364.767 156.051 364.991 156.45 365.437 156.775C365.897 157.086 366.708 157.498 367.872 158.012L368.277 158.195C369.657 158.817 370.671 159.507 371.321 160.264C371.97 161.022 372.294 161.941 372.294 163.023C372.294 164.038 372.037 164.87 371.523 165.519C371.023 166.155 370.36 166.615 369.535 166.899C368.71 167.169 367.77 167.304 366.715 167.304C365.038 167.304 363.422 166.986 361.866 166.351ZM380.644 157.099V152.798H393.121V157.099H391.884L391.052 154.36H388.536V165.417L390.403 165.864V167H383.363V165.864L385.229 165.417V154.36H382.693L381.861 157.099H380.644ZM401.342 167V165.864L403.208 165.417V154.381L401.342 153.934V152.798H408.382V153.934L406.516 154.381V165.417L408.382 165.864V167H401.342ZM416.824 167V165.864L418.69 165.417V154.381L416.824 153.934V152.798H420.313L429.017 162.334V154.381L427.151 153.934V152.798H432.568V153.934L430.701 154.381V167H428.733L420.313 157.789V165.417L422.18 165.864V167H416.824ZM448.642 152.494C450.062 152.494 451.381 152.757 452.598 153.285V157.038H451.462L450.528 154.036C450.163 153.982 449.791 153.954 449.413 153.954C447.776 153.954 446.491 154.462 445.558 155.476C444.625 156.491 444.158 157.965 444.158 159.899C444.158 163.862 445.774 165.844 449.007 165.844C449.21 165.844 449.406 165.837 449.595 165.823V161.968L447.282 161.258V160.325H454.404V161.258L452.902 161.968V166.31C452.632 166.445 452.314 166.574 451.949 166.696C451.583 166.817 451.191 166.919 450.772 167C450.353 167.095 449.927 167.169 449.494 167.223C449.061 167.277 448.642 167.304 448.236 167.304C445.842 167.304 444.002 166.662 442.717 165.377C441.432 164.092 440.79 162.266 440.79 159.899C440.79 157.532 441.466 155.706 442.819 154.421C444.171 153.136 446.112 152.494 448.642 152.494Z" fill="white"/>
<path d="M280.753 163.632C280.753 161.928 281.781 160.582 283.837 159.595C283.188 158.864 282.721 158.215 282.437 157.647C282.153 157.065 282.011 156.436 282.011 155.76C282.011 154.746 282.376 153.948 283.107 153.366C283.851 152.785 284.879 152.494 286.191 152.494C287.476 152.494 288.483 152.805 289.214 153.427C289.958 154.036 290.33 154.786 290.33 155.679C290.33 157.14 289.342 158.398 287.367 159.453L290.37 162.415C290.614 161.833 290.789 161.177 290.898 160.447L289.68 160V158.885H294.042V160L292.318 160.447C292.156 161.542 291.858 162.537 291.425 163.429L293.454 165.357L295.706 165.884V167H291.486L289.985 165.56C288.849 166.723 287.415 167.304 285.684 167.304C284.128 167.304 282.918 166.986 282.052 166.351C281.186 165.715 280.753 164.809 280.753 163.632ZM283.533 163.49C283.533 164.193 283.756 164.755 284.202 165.174C284.649 165.58 285.244 165.783 285.988 165.783C287.205 165.783 288.206 165.39 288.991 164.606L284.913 160.711C283.993 161.495 283.533 162.422 283.533 163.49ZM284.608 155.537C284.608 155.835 284.669 156.125 284.791 156.409C284.913 156.68 285.088 156.957 285.318 157.241L286.312 158.317C287.259 157.559 287.733 156.653 287.733 155.598C287.733 155.057 287.591 154.631 287.307 154.32C287.023 154.009 286.637 153.853 286.15 153.853C285.69 153.853 285.318 154.002 285.034 154.299C284.75 154.597 284.608 155.009 284.608 155.537Z" fill="#753EED"/>
<path d="M104.666 117.891V63M104.666 63L87.332 80.3339M104.666 63L122 80.3339" stroke="#753EED" stroke-width="10.1114" stroke-linecap="round" stroke-linejoin="round"/>
<path d="M87.332 117.891L87.332 100.557" stroke="#6346ED" stroke-width="10.1114" stroke-linecap="round"/>
<path d="M70 118.025V116.407V114.789" stroke="#594BEC" stroke-width="10.1114" stroke-linecap="round"/>
</svg>
