<svg width="350" height="130" viewBox="0 0 350 130" fill="none" xmlns="http://www.w3.org/2000/svg">
<path d="M83.3085 31.004V27.7H103.605V31.004L98.6485 32.066L106.024 53.66L113.222 27.7H121.069L129.801 53.719L135.524 32.302L130.745 31.004V27.7H145.613V31.004L140.185 32.302L130.155 69.413H124.432L114.52 39.559L106.083 69.413H100.714L88.4415 32.243L83.3085 31.004ZM150.619 69V65.696L156.047 64.398V32.302L150.619 31.004V27.7H171.092V31.004L165.664 32.302V64.398L171.092 65.696V69H150.619ZM177.941 69V65.696L183.369 64.398V32.302L177.941 31.004V27.7H198.414V31.004L192.986 32.302V64.457H203.724L207.736 56.256H211.04L209.27 69H177.941ZM217.442 67.112V56.256H220.746L223.755 64.516C225.407 65.106 227.472 65.401 229.95 65.401C232.625 65.401 234.926 64.929 236.853 63.985C238.82 63.041 239.803 61.6447 239.803 59.796C239.803 59.3633 239.744 58.9503 239.626 58.557C239.548 58.1637 239.39 57.79 239.154 57.436C238.918 57.082 238.682 56.7673 238.446 56.492C238.21 56.1773 237.856 55.8627 237.384 55.548C236.912 55.194 236.499 54.9187 236.145 54.722C235.791 54.486 235.26 54.191 234.552 53.837C233.884 53.483 232.684 52.893 230.953 52.067L228.829 51.064C224.935 49.176 222.143 47.2093 220.451 45.164C218.76 43.0793 217.914 40.5227 217.914 37.494C217.914 34.2687 219.252 31.6923 221.926 29.765C224.601 27.7983 228.062 26.815 232.31 26.815C237.07 26.815 241.357 27.4247 245.172 28.644V39.5H241.868L238.977 31.594C237.365 31.24 235.811 31.063 234.316 31.063C231.996 31.063 230.009 31.476 228.357 32.302C226.705 33.0887 225.879 34.249 225.879 35.783C225.879 37.1597 226.528 38.32 227.826 39.264C229.164 40.1687 231.524 41.3683 234.906 42.863L236.086 43.394C240.098 45.2033 243.048 47.2093 244.936 49.412C246.824 51.6147 247.768 54.2893 247.768 57.436C247.768 60.386 247.021 62.805 245.526 64.693C244.071 66.5417 242.144 67.879 239.744 68.705C237.345 69.4917 234.611 69.885 231.543 69.885C226.666 69.885 221.966 68.9607 217.442 67.112ZM255.529 48.35C255.529 41.978 257.279 36.8057 260.78 32.833C264.32 28.821 269.355 26.815 275.884 26.815C282.335 26.815 287.33 28.7817 290.87 32.715C294.449 36.6483 296.239 41.86 296.239 48.35C296.239 54.8007 294.449 60.0123 290.87 63.985C287.33 67.9183 282.335 69.885 275.884 69.885C269.433 69.885 264.418 67.938 260.839 64.044C257.299 60.1107 255.529 54.8793 255.529 48.35ZM275.884 65.814C279.306 65.814 281.902 64.2997 283.672 61.271C285.442 58.203 286.327 53.896 286.327 48.35C286.327 42.804 285.422 38.5167 283.613 35.488C281.843 32.42 279.267 30.886 275.884 30.886C272.462 30.886 269.866 32.42 268.096 35.488C266.326 38.5167 265.441 42.804 265.441 48.35C265.441 53.896 266.306 58.203 268.037 61.271C269.807 64.2997 272.423 65.814 275.884 65.814ZM303.062 69V65.696L308.49 64.398V32.302L303.062 31.004V27.7H313.21L338.521 55.43V32.302L333.093 31.004V27.7H348.846V31.004L343.418 32.302V69H337.695L313.21 42.214V64.398L318.638 65.696V69H303.062Z" fill="white"/>
<path d="M0.0790885 100.277V99.3817H5.91551V100.277L4.28132 100.627L7.06334 109.459L9.86483 99.3817H11.5185L14.7674 109.42L17.0631 100.705L15.4873 100.277V99.3817H20.1953V100.277L18.4055 100.705L15.0982 113.136H13.5612L10.1761 102.981L7.31626 113.136H5.81824L1.77165 100.685L0.0790885 100.277ZM26.7397 113V112.105L28.5295 111.677V100.705L26.7397 100.277V99.3817H36.8756V103.37H35.9613L35.1247 100.685L30.9225 100.53V105.529L35.1247 105.16V106.891L30.9225 106.541V111.852L35.4943 111.697L36.4865 108.798H37.4009L37.2453 113H26.7397ZM44.8448 113V112.105L46.6346 111.677V100.705L44.8448 100.277V99.3817H50.4283C53.5929 99.3817 55.1753 100.484 55.1753 102.689C55.1753 103.402 54.9613 104.025 54.5332 104.557C54.1182 105.088 53.5475 105.471 52.8212 105.704V105.743C53.8848 105.938 54.7019 106.334 55.2725 106.93C55.8562 107.527 56.148 108.272 56.148 109.167C56.148 110.335 55.7135 111.269 54.8445 111.969C53.9755 112.656 52.8018 113 51.3232 113H44.8448ZM49.0276 111.813H50.7201C51.6669 111.813 52.3997 111.586 52.9185 111.132C53.4373 110.678 53.6967 110.023 53.6967 109.167C53.6967 108.376 53.4243 107.741 52.8796 107.261C52.3478 106.781 51.5956 106.541 50.6228 106.541H49.0276V111.813ZM49.0276 105.315H50.1365C50.8887 105.315 51.5048 105.101 51.9847 104.673C52.4775 104.232 52.724 103.629 52.724 102.864C52.724 102.086 52.4775 101.509 51.9847 101.133C51.5048 100.756 50.8498 100.568 50.0197 100.568H49.0276V105.315ZM73.8354 113V112.105L75.6252 111.677V100.705L73.8354 100.277V99.3817H78.8936C81.2801 99.3817 83.1542 99.9523 84.5161 101.094C85.8909 102.235 86.5783 103.934 86.5783 106.191C86.5783 108.227 85.8714 109.874 84.4577 111.132C83.044 112.377 81.1893 113 78.8936 113H73.8354ZM78.0182 111.697H78.7964C80.5213 111.697 81.8378 111.262 82.7457 110.393C83.6665 109.524 84.127 108.123 84.127 106.191C84.127 104.401 83.6536 103.039 82.7068 102.105C81.7729 101.159 80.4695 100.685 78.7964 100.685H78.0182V111.697ZM93.7074 113V112.105L95.4972 111.677V100.705L93.7074 100.277V99.3817H103.843V103.37H102.929L102.092 100.685L97.8901 100.53V105.529L102.092 105.16V106.891L97.8901 106.541V111.852L102.462 111.697L103.454 108.798H104.369L104.213 113H93.7074ZM112.143 102.494C112.143 101.418 112.571 100.581 113.427 99.9848C114.283 99.3882 115.392 99.0899 116.754 99.0899C118.207 99.0899 119.536 99.239 120.742 99.5373L120.645 103.273H119.769L118.797 100.471C118.252 100.367 117.701 100.316 117.143 100.316C116.248 100.316 115.541 100.491 115.022 100.841C114.517 101.191 114.264 101.677 114.264 102.3C114.264 102.832 114.491 103.279 114.945 103.642C115.412 103.992 116.216 104.407 117.357 104.887C117.967 105.134 118.466 105.367 118.855 105.588C119.257 105.795 119.685 106.074 120.139 106.424C120.593 106.774 120.93 107.196 121.151 107.689C121.384 108.182 121.501 108.733 121.501 109.343C121.501 110.639 121.021 111.638 120.061 112.339C119.166 112.987 118.044 113.305 116.696 113.292C116.332 113.292 115.729 113.259 114.886 113.195C114.056 113.13 113.155 112.955 112.182 112.669V108.837H113.077L114.069 111.755C114.614 111.924 115.249 112.008 115.976 112.008C116.987 112.008 117.805 111.833 118.427 111.483C119.05 111.119 119.361 110.555 119.361 109.79C119.361 109.206 119.082 108.7 118.524 108.272C117.967 107.844 117.15 107.397 116.073 106.93C114.594 106.295 113.57 105.679 112.999 105.082C112.429 104.485 112.143 103.623 112.143 102.494ZM128.911 113V112.105L130.72 111.677V100.705L128.911 100.277V99.3817H134.883V100.277L133.093 100.705V111.677L134.883 112.105V113H128.911ZM142.117 106.191C142.117 103.934 142.746 102.19 144.004 100.958C145.275 99.7124 147.098 99.0899 149.471 99.0899C150.976 99.0899 152.234 99.3103 153.245 99.7513V103.448H152.35L151.436 100.549C150.788 100.445 150.243 100.393 149.802 100.393C148.142 100.393 146.851 100.886 145.93 101.872C145.022 102.858 144.568 104.297 144.568 106.191C144.568 108.097 144.984 109.544 145.814 110.529C146.644 111.502 147.843 111.988 149.413 111.988C149.983 111.988 150.496 111.943 150.95 111.852V107.786L148.732 107.378V106.697H154.782V107.378L153.343 107.786V112.339C152.149 112.974 150.755 113.292 149.16 113.292C146.877 113.292 145.133 112.676 143.926 111.444C142.72 110.211 142.117 108.461 142.117 106.191ZM161.739 113V112.105L163.529 111.677V100.705L161.739 100.277V99.3817H164.891L173.003 109.012V100.705L171.213 100.277V99.3817H176.213V100.277L174.423 100.705V113H173.256L164.891 103.136V111.677L166.68 112.105V113H161.739ZM224.223 113V112.105L226.013 111.677V100.705L224.223 100.277V99.3817H230.196V100.277L228.406 100.705V105.471H234.417V100.705L232.627 100.277V99.3817H238.6V100.277L236.81 100.705V111.677L238.6 112.105V113H232.627V112.105L234.417 111.677V106.774H228.406V111.677L230.196 112.105V113H224.223ZM252.363 99.0899C253.414 99.0899 254.341 99.2649 255.145 99.6151C255.949 99.9653 256.63 100.452 257.188 101.074C257.746 101.697 258.167 102.443 258.453 103.312C258.738 104.181 258.881 105.134 258.881 106.171C258.881 107.222 258.738 108.182 258.453 109.051C258.18 109.92 257.765 110.672 257.208 111.307C256.663 111.93 255.982 112.416 255.165 112.767C254.361 113.117 253.427 113.292 252.363 113.292C251.235 113.292 250.256 113.104 249.426 112.728C248.609 112.352 247.934 111.846 247.402 111.21C246.871 110.562 246.475 109.803 246.216 108.934C245.969 108.065 245.846 107.131 245.846 106.132C245.846 105.16 245.976 104.252 246.235 103.409C246.494 102.553 246.89 101.807 247.422 101.172C247.954 100.523 248.628 100.017 249.445 99.654C250.275 99.2779 251.248 99.0899 252.363 99.0899ZM252.363 100.238C251.04 100.238 250.035 100.795 249.348 101.911C248.673 103.013 248.336 104.44 248.336 106.191C248.336 108.046 248.693 109.505 249.406 110.568C250.132 111.619 251.118 112.144 252.363 112.144C253.608 112.144 254.588 111.619 255.301 110.568C256.027 109.505 256.39 108.046 256.39 106.191C256.39 104.44 256.047 103.013 255.359 101.911C254.685 100.795 253.686 100.238 252.363 100.238ZM266.691 102.494C266.691 101.418 267.119 100.581 267.975 99.9848C268.831 99.3882 269.94 99.0899 271.302 99.0899C272.755 99.0899 274.084 99.239 275.29 99.5373L275.193 103.273H274.318L273.345 100.471C272.8 100.367 272.249 100.316 271.691 100.316C270.796 100.316 270.09 100.491 269.571 100.841C269.065 101.191 268.812 101.677 268.812 102.3C268.812 102.832 269.039 103.279 269.493 103.642C269.96 103.992 270.764 104.407 271.905 104.887C272.515 105.134 273.014 105.367 273.403 105.588C273.805 105.795 274.233 106.074 274.687 106.424C275.141 106.774 275.478 107.196 275.699 107.689C275.932 108.182 276.049 108.733 276.049 109.343C276.049 110.639 275.569 111.638 274.609 112.339C273.715 112.987 272.593 113.305 271.244 113.292C270.881 113.292 270.278 113.259 269.435 113.195C268.604 113.13 267.703 112.955 266.73 112.669V108.837H267.625L268.617 111.755C269.162 111.924 269.798 112.008 270.524 112.008C271.536 112.008 272.353 111.833 272.975 111.483C273.598 111.119 273.909 110.555 273.909 109.79C273.909 109.206 273.63 108.7 273.073 108.272C272.515 107.844 271.698 107.397 270.621 106.93C269.143 106.295 268.118 105.679 267.547 105.082C266.977 104.485 266.691 103.623 266.691 102.494ZM283.186 103.506V99.3817H294.762V103.506H293.848L292.972 100.685L290.171 100.53V111.677L291.961 112.105V113H285.988V112.105L287.778 111.677V100.53L284.957 100.685L284.101 103.506H283.186ZM301.849 113V112.105L303.658 111.677V100.705L301.849 100.277V99.3817H307.822V100.277L306.032 100.705V111.677L307.822 112.105V113H301.849ZM315.166 113V112.105L316.956 111.677V100.705L315.166 100.277V99.3817H318.318L326.431 109.012V100.705L324.641 100.277V99.3817H329.641V100.277L327.851 100.705V113H326.683L318.318 103.136V111.677L320.108 112.105V113H315.166ZM336.694 106.191C336.694 103.934 337.323 102.19 338.581 100.958C339.852 99.7124 341.675 99.0899 344.048 99.0899C345.553 99.0899 346.811 99.3103 347.822 99.7513V103.448H346.928L346.013 100.549C345.365 100.445 344.82 100.393 344.379 100.393C342.719 100.393 341.428 100.886 340.507 101.872C339.6 102.858 339.146 104.297 339.146 106.191C339.146 108.097 339.561 109.544 340.391 110.529C341.221 111.502 342.421 111.988 343.99 111.988C344.561 111.988 345.073 111.943 345.527 111.852V107.786L343.309 107.378V106.697H349.359V107.378L347.92 107.786V112.339C346.727 112.974 345.332 113.292 343.737 113.292C341.454 113.292 339.71 112.676 338.504 111.444C337.297 110.211 336.694 108.461 336.694 106.191Z" fill="white"/>
<path d="M193.659 109.771C193.659 108.201 194.677 106.878 196.713 105.802C195.481 104.466 194.865 103.234 194.865 102.105C194.865 101.107 195.228 100.354 195.954 99.8486C196.694 99.3428 197.601 99.0899 198.678 99.0899C199.728 99.0899 200.623 99.3492 201.363 99.868C202.102 100.387 202.472 101.113 202.472 102.047C202.472 103.513 201.473 104.758 199.476 105.782L202.647 108.934C202.958 108.247 203.178 107.507 203.308 106.716L202.141 106.288V105.413H206.129V106.288L204.456 106.716C204.313 107.819 204.009 108.837 203.542 109.771L205.507 111.658L207.452 112.125V113H204.145L202.472 111.405C201.343 112.663 199.917 113.292 198.192 113.292C196.908 113.292 195.831 112.994 194.962 112.397C194.093 111.787 193.659 110.912 193.659 109.771ZM195.857 109.771C195.857 110.406 196.064 110.957 196.48 111.424C196.895 111.891 197.498 112.125 198.289 112.125C199.625 112.125 200.734 111.606 201.616 110.568L197.588 106.716C196.434 107.637 195.857 108.655 195.857 109.771ZM196.966 102.086C196.966 102.397 197.044 102.728 197.199 103.078C197.368 103.428 197.647 103.811 198.036 104.226C198.425 104.641 198.633 104.861 198.658 104.887C199.151 104.589 199.553 104.187 199.865 103.681C200.189 103.175 200.351 102.637 200.351 102.066C200.351 101.483 200.189 101.029 199.865 100.705C199.54 100.367 199.132 100.199 198.639 100.199C198.185 100.199 197.789 100.367 197.452 100.705C197.128 101.029 196.966 101.489 196.966 102.086Z" fill="#753EED"/>
<path d="M39.7216 68.8907V14M39.7216 14L22.3877 31.3339M39.7216 14L57.0555 31.3339" stroke="#753EED" stroke-width="10.1114" stroke-linecap="round" stroke-linejoin="round"/>
<path d="M22.3877 68.8912L22.3877 51.5573" stroke="#6346ED" stroke-width="10.1114" stroke-linecap="round"/>
<path d="M5.05566 69.0255V67.4071V65.7886" stroke="#594BEC" stroke-width="10.1114" stroke-linecap="round"/>
</svg>
