<svg width="394" height="136" viewBox="0 0 394 136" fill="none" xmlns="http://www.w3.org/2000/svg">
<path d="M127.897 83.3597C125.665 83.3597 124.177 82.6529 123.434 81.2394C122.764 79.9003 122.429 78.4124 122.429 76.7757C122.429 74.8415 122.801 72.5724 123.545 69.9686C124.363 67.2904 125.368 64.5749 126.558 61.8223C127.823 58.9953 129.088 56.3171 130.352 53.7876C131.691 51.2582 132.844 49.138 133.812 47.4269C134.481 46.3109 135.56 44.4511 137.048 41.8472C138.61 39.169 140.321 36.156 142.181 32.8082C144.115 29.4604 145.975 26.1499 147.761 22.8765C149.546 19.5287 150.997 16.5901 152.113 14.0607C153.303 11.5312 153.898 9.82015 153.898 8.92741C153.898 6.76995 153.117 5.28204 151.555 4.4637C150.067 3.64535 148.244 3.23618 146.087 3.23618C142.665 3.23618 138.722 3.98013 134.258 5.46803C129.794 6.88154 125.256 8.81581 120.644 11.2708C116.106 13.7259 111.865 16.5529 107.922 19.7519C104.054 22.8765 100.929 26.1499 98.5483 29.572C96.1677 32.9942 94.9774 36.342 94.9774 39.6154C94.9774 41.2521 95.4609 42.5168 96.4281 43.4095C97.3952 44.2279 98.6227 44.7858 100.111 45.0834C101.599 45.3066 103.124 45.4182 104.686 45.4182C106.397 45.4182 108.034 45.2322 109.596 44.8602C111.233 44.4883 112.795 44.0419 114.283 43.5211C114.432 43.4467 114.58 43.4095 114.729 43.4095C114.878 43.3351 115.027 43.2979 115.176 43.2979C116.366 43.2979 116.961 43.8187 116.961 44.8602C116.961 45.5298 116.403 46.125 115.287 46.6457C114.171 47.0921 112.832 47.4641 111.27 47.7616C109.782 48.0592 108.331 48.2824 106.918 48.4312C105.504 48.58 104.5 48.6544 103.905 48.6544C101.747 48.6544 99.6271 48.394 97.544 47.8732C95.5353 47.2781 93.8987 46.3481 92.6339 45.0834C91.3692 43.7443 90.7369 41.9588 90.7369 39.727C90.7369 37.4951 91.332 35.1889 92.5223 32.8082C93.6383 30.4276 94.903 28.3073 96.3165 26.4474C98.102 24.0668 100.371 21.6862 103.124 19.3055C105.951 16.9249 108.926 14.693 112.051 12.61C115.176 10.5269 118.114 8.77862 120.867 7.36511C123.173 6.10039 125.777 4.91007 128.678 3.79415C131.654 2.67822 134.667 1.78547 137.717 1.11592C140.768 0.371968 143.669 -7.07727e-06 146.422 -7.07727e-06C149.695 -7.07727e-06 152.373 0.669549 154.456 2.00866C156.539 3.34777 157.581 5.57963 157.581 8.70422V8.92741C157.581 10.1177 156.986 12.052 155.795 14.7302C154.679 17.334 153.229 20.3099 151.443 23.6576C149.732 27.0054 147.909 30.3904 145.975 33.8126C144.041 37.1603 142.255 40.2105 140.619 42.9632C139.056 45.6414 137.903 47.6129 137.159 48.8776C136.267 50.2911 135.188 52.2253 133.923 54.6804C132.733 57.061 131.543 59.6277 130.352 62.3803C129.162 65.1329 128.158 67.7739 127.339 70.3034C126.595 72.7584 126.223 74.7671 126.223 76.3294C126.223 77.1477 126.409 77.9289 126.781 78.6728C127.153 79.4911 127.934 79.9003 129.125 79.9003C131.059 79.9003 133.44 78.9704 136.267 77.1105C139.094 75.325 142.069 73.056 145.194 70.3034C148.393 67.4763 151.48 64.5377 154.456 61.4875C157.432 58.3629 160.073 55.4987 162.379 52.8949C164.76 50.2911 166.471 48.3196 167.513 46.9805C167.81 45.7158 168.294 44.0791 168.963 42.0704C169.707 39.9874 170.6 37.7927 171.642 35.4865C172.757 33.1802 173.985 31.0227 175.324 29.0141C176.738 26.931 178.225 25.2571 179.788 23.9924C181.35 22.6533 182.987 21.9837 184.698 21.9837C185.293 21.9837 185.925 22.1325 186.595 22.4301C187.264 22.6533 187.599 23.0997 187.599 23.7692C187.599 24.0668 187.562 24.29 187.488 24.4388C185.405 28.6049 182.912 32.6966 180.011 36.714C177.11 40.7313 174.134 44.5998 171.084 48.3196C170.786 49.9563 170.526 51.593 170.302 53.2297C170.154 54.8664 170.079 56.5403 170.079 58.2513C170.079 60.632 170.377 62.9754 170.972 65.2817C171.567 67.5135 172.72 69.3734 174.431 70.8613C176.142 72.3492 178.672 73.0932 182.02 73.0932C185.888 73.0932 189.571 72.126 193.067 70.1918C196.564 68.1831 199.502 65.914 201.883 63.3846C204.933 60.26 207.649 56.6147 210.029 52.4485C212.484 48.2824 214.419 43.9675 215.832 39.5038C217.32 34.9657 218.064 30.6508 218.064 26.559C218.064 24.2528 217.766 22.1697 217.171 20.3099C216.576 18.45 215.125 16.8133 212.819 15.3998C212.224 15.0278 211.926 14.5814 211.926 14.0607C211.926 13.6887 212.075 13.3167 212.373 12.9447C212.745 12.5728 213.191 12.3868 213.712 12.3868C214.01 12.3868 214.307 12.4612 214.605 12.61C217.432 13.9491 219.329 15.8833 220.296 18.4128C221.263 20.9422 221.747 23.5088 221.747 26.1127C221.747 29.5348 221.114 33.4778 219.85 37.9415C218.659 42.3308 216.874 46.7945 214.493 51.3326C212.187 55.7963 209.397 59.9252 206.124 63.7194C202.85 67.5135 199.131 70.6009 194.964 72.9816C190.873 75.2878 186.446 76.4409 181.685 76.4409C178.188 76.4409 175.398 75.697 173.315 74.2091C171.232 72.7212 169.67 70.7869 168.629 68.4063C167.661 66.0256 167.029 63.5334 166.731 60.9296C166.508 58.2513 166.434 55.7591 166.508 53.4529C165.244 54.9408 163.458 56.9122 161.152 59.3673C158.92 61.8223 156.353 64.4261 153.452 67.1788C150.625 69.9314 147.686 72.5352 144.636 74.9902C141.586 77.4453 138.61 79.4539 135.709 81.0162C132.882 82.5785 130.278 83.3597 127.897 83.3597ZM234.439 31.5807C234.067 31.5807 233.657 31.5063 233.211 31.3575C232.765 31.2087 232.541 30.874 232.541 30.3532C232.541 29.9812 232.653 29.6464 232.876 29.3489C233.471 28.2329 234.55 27.2658 236.112 26.4474C237.749 25.6291 238.977 25.2199 239.795 25.2199C240.167 25.2199 240.576 25.3315 241.022 25.5547C241.469 25.7035 241.692 26.0383 241.692 26.559C241.692 27.8238 240.911 28.9769 239.349 30.0184C237.861 31.0599 236.224 31.5807 234.439 31.5807ZM221.94 77.2221C219.411 77.2221 217.402 76.5153 215.914 75.1018C214.426 73.6883 213.682 71.7169 213.682 69.1874C213.682 67.6995 213.831 66.2488 214.129 64.8353C214.426 63.3474 214.835 61.8967 215.356 60.4832C215.654 59.6649 216.249 58.3257 217.142 56.4659C218.109 54.5316 219.225 52.5229 220.489 50.4399C221.754 48.2824 222.982 46.4597 224.172 44.9718C225.362 43.4839 226.404 42.74 227.297 42.74C227.669 42.74 228.152 42.8888 228.747 43.1863C229.417 43.4095 229.752 43.7815 229.752 44.3023C229.752 44.5999 229.603 44.9718 229.305 45.4182C227.594 47.3525 225.809 49.6587 223.949 52.3369C222.089 55.0152 220.527 57.805 219.262 60.7064C217.997 63.6078 217.365 66.3976 217.365 69.0758C217.365 72.498 219.002 74.2091 222.275 74.2091C224.507 74.2091 226.739 73.1304 228.97 70.9729C231.277 68.8155 233.806 65.914 236.559 62.2687C237.377 61.2272 238.084 60.2228 238.679 59.2557C239.349 58.2142 239.944 57.3214 240.465 56.5775C240.985 56.0567 241.543 55.7963 242.138 55.7963C243.031 55.7963 243.478 56.1311 243.478 56.8006C243.478 57.619 242.882 58.9209 241.692 60.7064C240.502 62.4919 239.163 64.3517 237.675 66.286C234.773 69.857 232.244 72.5724 230.086 74.4323C227.929 76.2922 225.214 77.2221 221.94 77.2221ZM246.938 77.2221C243.962 77.2221 241.916 76.3294 240.8 74.5439C239.684 72.7584 239.126 70.6009 239.126 68.0715C239.126 65.2445 239.573 62.0083 240.465 58.3629C241.433 54.7176 242.66 50.9234 244.148 46.9805C245.71 43.0376 247.459 39.169 249.393 35.3749C251.327 31.5807 253.299 28.1213 255.307 24.9967C257.316 21.8722 259.213 19.3055 260.998 17.2969C262.561 15.5858 264.049 14.2839 265.462 13.3911C266.95 12.424 268.512 11.6428 270.149 11.0477C271.265 10.6013 272.381 10.3781 273.497 10.3781C274.985 10.3781 276.249 10.7501 277.291 11.494C278.407 12.238 278.965 13.4655 278.965 15.1766C278.965 16.8133 278.37 18.7104 277.179 20.8678C275.989 22.9509 274.501 25.0711 272.716 27.2286C270.93 29.3861 269.108 31.3947 267.248 33.2546C265.388 35.1145 263.751 36.6396 262.338 37.8299C259.213 40.4337 256.2 42.8888 253.299 45.195C250.397 47.4269 247.979 49.6959 246.045 52.0022C245.003 54.9036 244.185 57.7306 243.59 60.4832C242.995 63.1614 242.697 65.5793 242.697 67.7367C242.697 69.671 243.032 71.2705 243.702 72.5352C244.446 73.7999 245.71 74.4323 247.496 74.4323C249.281 74.4323 250.992 73.8743 252.629 72.7584C254.266 71.5681 255.828 70.0802 257.316 68.2947C258.878 66.5092 260.292 64.7237 261.556 62.9382C262.449 61.6735 263.305 60.446 264.123 59.2557C265.016 57.991 265.723 56.9866 266.243 56.2427C266.541 55.7219 267.024 55.4615 267.694 55.4615C268.512 55.4615 268.922 55.8707 268.922 56.6891C268.922 57.2098 268.698 57.8794 268.252 58.6977C267.359 60.1856 266.206 61.9711 264.793 64.0542C263.379 66.1372 261.78 68.1831 259.994 70.1918C258.209 72.2004 256.2 73.8743 253.968 75.2134C251.811 76.5525 249.467 77.2221 246.938 77.2221ZM263.677 19.5287C262.04 21.3142 260.292 23.6204 258.432 26.4474C256.646 29.2745 254.861 32.3991 253.075 35.8212C251.29 39.2434 249.653 42.7028 248.165 46.1993C250.546 44.0419 252.703 42.2192 254.638 40.7313C256.572 39.169 258.506 37.5323 260.44 35.8212C262.152 34.3333 263.974 32.5106 265.909 30.3532C267.917 28.1213 269.777 25.8151 271.488 23.4344C273.199 21.0538 274.39 18.8592 275.059 16.8505C275.282 16.0321 275.394 15.3998 275.394 14.9534C275.394 13.7631 274.799 13.1679 273.608 13.1679C273.311 13.1679 272.976 13.2051 272.604 13.2795C272.306 13.3539 271.972 13.4655 271.6 13.6143C270.261 14.1351 268.922 14.879 267.582 15.8461C266.318 16.8133 265.016 18.0408 263.677 19.5287ZM268.424 78.2264C264.778 78.2264 261.989 77.4825 260.054 75.9946C258.12 74.5067 257.153 72.9444 257.153 71.3077C257.153 70.1174 257.674 69.0758 258.715 68.1831C259.682 67.216 261.356 66.7324 263.737 66.7324C265.225 66.7324 267.01 66.9556 269.093 67.4019C270.656 67.7739 272.292 68.2575 274.003 68.8526C275.789 69.4478 277.611 69.7082 279.471 69.6338C279.992 68.8155 280.29 68.1459 280.364 67.6251C280.439 67.1044 280.476 66.472 280.476 65.7281C280.476 63.273 280.067 61.2272 279.248 59.5905C278.504 57.9538 277.611 56.3543 276.57 54.792C275.603 53.2297 274.784 51.3326 274.115 49.1008C273.148 50.7374 271.92 52.8949 270.432 55.5731C268.944 58.177 266.489 61.7479 263.067 66.286C262.844 66.658 262.398 66.844 261.728 66.844C260.612 66.844 260.054 66.3604 260.054 65.3933C260.054 65.1701 260.24 64.8353 260.612 64.3889C260.91 63.9426 261.654 62.7894 262.844 60.9296C264.183 58.7721 265.745 56.3543 267.531 53.6761C269.316 50.9234 271.028 47.9104 272.664 44.637C272.739 43.3723 272.999 42.1448 273.445 40.9545C273.892 39.7642 274.413 38.6854 275.008 37.7183C275.826 36.3792 276.682 35.4121 277.574 34.8169C278.467 34.1473 279.285 33.8126 280.029 33.8126C281.443 33.8126 282.15 34.6309 282.15 36.2676C282.15 37.3835 281.703 38.8342 280.81 40.6197C280.29 41.7356 279.62 42.7028 278.802 43.5211C277.983 44.2651 277.277 44.9346 276.682 45.5298C276.83 47.3897 277.277 49.0636 278.021 50.5515C278.765 52.0394 279.583 53.4901 280.476 54.9036C281.443 56.3171 282.261 57.8422 282.931 59.4789C283.6 61.1156 283.935 63.087 283.935 65.3933C283.935 66.8812 283.675 68.2575 283.154 69.5222C284.791 69.5966 286.465 69.0014 288.176 67.7367C289.961 66.3976 291.635 64.6865 293.197 62.6035C294.834 60.5204 296.285 58.4001 297.549 56.2427C297.921 55.7219 298.405 55.4615 299 55.4615C299.372 55.4615 299.744 55.5731 300.116 55.7963C300.488 56.0195 300.674 56.3915 300.674 56.9122C300.674 57.2098 300.562 57.5818 300.339 58.0282C298.182 61.8967 296.099 64.9097 294.09 67.0672C292.156 69.1502 290.184 70.6009 288.176 71.4193C286.167 72.2376 283.935 72.7212 281.48 72.87C279.62 74.5811 277.611 75.9202 275.454 76.8873C273.371 77.7801 271.028 78.2264 268.424 78.2264ZM267.866 75.5482C269.577 75.5482 271.065 75.2878 272.329 74.7671C273.594 74.2463 274.97 73.5023 276.458 72.5352C274.896 72.312 273.594 72.0516 272.553 71.7541C271.511 71.3821 270.172 71.0101 268.535 70.6381C266.452 70.1918 264.816 69.9686 263.625 69.9686C261.468 69.9686 260.389 70.4893 260.389 71.5309C260.389 72.3492 261.096 73.242 262.509 74.2091C263.923 75.1018 265.708 75.5482 267.866 75.5482ZM303.598 79.6771C301.589 79.6771 299.99 79.1564 298.8 78.1148C297.609 77.0733 296.717 75.8086 296.121 74.3207C295.601 72.7584 295.34 71.3077 295.34 69.9686C295.34 68.1831 295.675 66.2116 296.345 64.0542C297.014 61.8223 297.609 60.2972 298.13 59.4789C298.13 59.2557 298.093 59.0325 298.018 58.8093C298.018 58.5117 298.018 58.2513 298.018 58.0282C298.018 56.0195 298.316 53.9364 298.911 51.779C299.581 49.2495 300.771 46.9433 302.482 44.8602C304.193 42.7028 306.313 40.9545 308.843 39.6154C311.447 38.2763 314.274 37.6067 317.324 37.6067C320.895 37.6067 323.648 38.5738 325.582 40.5081C327.516 42.368 328.483 44.823 328.483 47.8732C328.483 52.1138 327.702 55.7591 326.14 58.8093C324.652 61.8595 323.052 64.7981 321.341 67.6251C321.044 68.2203 320.783 68.7039 320.56 69.0758C320.337 69.4478 320.56 69.6338 321.23 69.6338C323.387 69.6338 325.507 68.7411 327.59 66.9556C329.674 65.1701 332.315 61.7851 335.514 56.8006C335.737 56.4287 335.96 56.1311 336.183 55.9079C336.406 55.6847 336.741 55.5731 337.187 55.5731H337.411C338.229 55.5731 338.713 56.0567 338.861 57.0238C338.861 57.247 338.787 57.5074 338.638 57.805C336.778 61.0784 334.881 63.9054 332.947 66.286C331.087 68.6667 328.855 70.4893 326.251 71.7541C323.648 72.9444 320.374 73.5767 316.431 73.6511C314.869 75.139 312.935 76.5153 310.628 77.7801C308.397 79.0448 306.053 79.6771 303.598 79.6771ZM314.311 69.4106H315.427C316.989 67.5507 318.477 65.4305 319.891 63.0498C321.378 60.6692 322.569 58.2142 323.462 55.6847C324.354 53.0809 324.801 50.6259 324.801 48.3196C324.801 46.1621 324.243 44.3395 323.127 42.8516C322.011 41.2893 320.077 40.5081 317.324 40.5081C315.464 40.5081 313.641 40.9173 311.856 41.7356C310.145 42.4796 308.657 43.4095 307.392 44.5255L307.727 44.9718C307.876 44.8974 308.099 44.8602 308.397 44.8602C308.843 44.8602 309.252 45.0462 309.624 45.4182C309.996 45.7158 310.182 46.0506 310.182 46.4225C310.182 46.6457 310.145 46.8317 310.07 46.9805C309.996 47.1293 309.884 47.2781 309.736 47.4269C308.471 49.2867 307.243 51.035 306.053 52.6717C304.863 54.3084 303.747 56.1683 302.705 58.2513C302.482 58.7721 302.222 59.2929 301.924 59.8136C302.519 62.5663 303.896 64.8725 306.053 66.7324C308.285 68.5179 311.038 69.4106 314.311 69.4106ZM304.268 76.5525C305.756 76.5525 307.243 76.1062 308.731 75.2134C310.219 74.2463 311.484 73.3536 312.525 72.5352C306.871 71.94 302.705 69.4478 300.027 65.0585C299.953 65.5793 299.804 66.3604 299.581 67.4019C299.358 68.4435 299.246 69.485 299.246 70.5265C299.246 72.0144 299.581 73.3907 300.25 74.6555C300.92 75.9202 302.259 76.5525 304.268 76.5525ZM341.74 77.4453C341.368 77.4453 340.959 77.3337 340.513 77.1105C340.066 76.8873 339.843 76.5897 339.843 76.2178C339.843 75.6226 339.955 75.1018 340.178 74.6555C340.996 72.87 342.038 70.6753 343.302 68.0715C344.641 65.4677 345.943 62.7894 347.208 60.0368C348.547 57.2098 349.663 54.5688 350.556 52.1138C351.523 49.6587 352.007 47.6872 352.007 46.1993C352.007 45.753 351.895 45.3438 351.672 44.9718C351.523 44.5255 351.151 44.3023 350.556 44.3023C349.663 44.3023 348.77 44.6742 347.878 45.4182C347.059 46.1621 346.315 47.0177 345.646 47.9848C344.976 48.8776 344.418 49.6215 343.972 50.2167C342.484 52.2253 341.219 54.0852 340.178 55.7963C339.136 57.433 338.058 59.0697 336.942 60.7064C335.9 62.2687 334.598 64.017 333.036 65.9512C332.813 66.2488 332.552 66.5092 332.255 66.7324C332.032 66.8812 331.697 66.9556 331.25 66.9556C330.804 66.9556 330.432 66.7324 330.134 66.286C329.762 65.8396 329.688 65.4305 329.911 65.0585C331.548 62.4547 333.147 59.9996 334.71 57.6934C336.272 55.3127 337.648 53.2669 338.839 51.5558C340.029 49.8447 340.847 48.6916 341.294 48.0964C342.558 46.4597 343.86 44.8974 345.199 43.4095C346.613 41.9216 348.51 41.1777 350.891 41.1777C352.899 41.1777 354.276 41.7356 355.02 42.8516C355.838 43.9675 356.247 45.2694 356.247 46.7573C356.247 49.4355 355.131 52.8949 352.899 57.1354C355.652 54.234 358.591 51.593 361.715 49.2123C364.914 46.8317 367.89 44.8602 370.643 43.2979C373.395 41.6612 375.478 40.6569 376.892 40.2849C377.561 40.0618 378.231 39.8758 378.9 39.727C379.644 39.5782 380.314 39.5038 380.909 39.5038C381.653 39.5038 382.248 39.6898 382.695 40.0617C383.215 40.4337 383.476 41.1405 383.476 42.182C383.476 43.2235 382.806 44.7114 381.467 46.6457C380.128 48.5056 378.491 50.6631 376.557 53.1181C374.697 55.4987 372.912 57.9166 371.201 60.3716C369.489 62.8266 368.262 65.1329 367.518 67.2904C367.295 67.8111 367.146 68.3319 367.072 68.8526C366.997 69.299 366.96 69.7082 366.96 70.0802C366.96 72.0888 367.89 73.0932 369.75 73.0932C370.94 73.0932 372.428 72.498 374.214 71.3077C375.255 70.6381 376.259 69.8942 377.227 69.0758C378.268 68.1831 379.049 67.4019 379.57 66.7324C380.686 65.4677 381.579 64.3889 382.248 63.4962C382.992 62.6035 383.699 61.6363 384.368 60.5948C385.112 59.4789 386.042 58.1026 387.158 56.4659C387.381 56.0939 387.605 55.8335 387.828 55.6847C388.051 55.5359 388.423 55.4615 388.944 55.4615C389.762 55.4615 390.171 55.9823 390.171 57.0238C390.171 57.4702 389.836 58.2513 389.167 59.3673C388.497 60.4088 387.679 61.5991 386.712 62.9382C385.819 64.203 384.926 65.3933 384.034 66.5092C383.215 67.5507 382.62 68.2947 382.248 68.7411C381.43 69.7082 380.388 70.7125 379.124 71.7541C377.933 72.7956 376.706 73.6883 375.441 74.4323C374.251 75.1018 373.023 75.5854 371.758 75.883C370.494 76.1806 369.266 76.3294 368.076 76.3294C366.142 76.3294 364.728 75.7714 363.835 74.6555C363.017 73.5395 362.608 72.3492 362.608 71.0845C362.608 69.1502 363.24 66.9556 364.505 64.5005C365.844 61.9711 367.406 59.4789 369.192 57.0238C371.052 54.4944 372.763 52.2253 374.325 50.2167C375.962 48.208 377.078 46.7573 377.673 45.8646C377.822 45.6414 377.933 45.4554 378.008 45.3066C378.082 45.0834 378.119 44.8974 378.119 44.7486C378.119 44.1535 377.673 43.8559 376.78 43.8559C376.334 43.8559 375.813 43.9675 375.218 44.1907C372.168 45.4554 368.969 47.3153 365.621 49.7703C362.348 52.2253 359.297 54.9036 356.47 57.805C353.718 60.632 351.523 63.3102 349.886 65.8396L345.423 72.87C345.051 73.4651 344.716 74.0975 344.418 74.7671C344.121 75.3622 343.786 75.9574 343.414 76.5525C342.968 77.1477 342.41 77.4453 341.74 77.4453Z" fill="white"/>
<path d="M0.13441 110.045V108.909H7.11366V110.045L5.40943 110.41L7.94549 117.835L10.4207 108.909H13.1191L16.1218 117.856L18.0898 110.491L16.4464 110.045V108.909H21.5591V110.045L19.6926 110.491L16.2435 123.253H14.2755L10.867 112.987L7.96578 123.253H6.11953L1.89951 110.471L0.13441 110.045ZM29.3672 123.111V121.974L31.2337 121.528V110.491L29.3672 110.045V108.909H40.1404V113.068H38.9434L38.1318 110.471H34.5407V115.178L38.3144 114.833V116.841L34.5407 116.537V121.548H38.1724L39.552 118.728H40.749L40.1404 123.111H29.3672ZM49.2475 123.111V121.974L51.1141 121.528V110.491L49.2475 110.045V108.909H55.4558C57.0383 108.909 58.2962 109.186 59.2295 109.74C60.1628 110.281 60.6294 111.154 60.6294 112.358C60.6294 113.088 60.3657 113.751 59.8382 114.346C59.3107 114.927 58.6885 115.306 57.9716 115.482V115.543C59.0942 115.746 59.9869 116.165 60.6497 116.801C61.3125 117.423 61.6438 118.194 61.6438 119.114C61.6438 120.317 61.1299 121.285 60.1019 122.015C59.074 122.745 57.7755 123.111 56.2065 123.111H49.2475ZM54.4211 121.67H55.1312C57.2277 121.67 58.2759 120.818 58.2759 119.114C58.2759 118.289 58.019 117.646 57.505 117.186C57.0045 116.726 56.2471 116.496 55.2327 116.496H54.4211V121.67ZM54.4211 115.015H54.7052C55.422 115.015 56.0239 114.799 56.5108 114.366C57.0113 113.933 57.2615 113.325 57.2615 112.54C57.2615 111.079 56.3688 110.349 54.5834 110.349H54.4211V115.015ZM81.6775 123.111V121.974L83.544 121.528V110.491L81.6775 110.045V108.909H87.7641C90.2257 108.909 92.1058 109.565 93.4043 110.877C94.7163 112.175 95.3723 113.886 95.3723 116.01C95.3723 118.268 94.6824 120.02 93.3028 121.264C91.9232 122.495 90.0769 123.111 87.7641 123.111H81.6775ZM86.8511 121.548H87.4597C88.934 121.548 90.0567 121.068 90.8276 120.108C91.6121 119.147 92.0044 117.781 92.0044 116.01C92.0044 114.224 91.6121 112.858 90.8276 111.911C90.0567 110.951 88.934 110.471 87.4597 110.471H86.8511V121.548ZM103.757 123.111V121.974L105.624 121.528V110.491L103.757 110.045V108.909H114.53V113.068H113.333L112.522 110.471H108.931V115.178L112.704 114.833V116.841L108.931 116.537V121.548H112.562L113.942 118.728H115.139L114.53 123.111H103.757ZM123.962 122.461V118.728H125.098L126.133 121.569C126.701 121.771 127.411 121.873 128.263 121.873C129.183 121.873 129.974 121.711 130.637 121.386C131.313 121.061 131.651 120.581 131.651 119.945C131.651 119.797 131.631 119.655 131.591 119.519C131.564 119.384 131.509 119.256 131.428 119.134C131.347 119.012 131.266 118.904 131.185 118.809C131.104 118.701 130.982 118.593 130.82 118.485C130.657 118.363 130.515 118.268 130.394 118.201C130.272 118.12 130.089 118.018 129.846 117.896C129.616 117.775 129.203 117.572 128.608 117.288L127.878 116.943C126.539 116.294 125.578 115.617 124.997 114.914C124.415 114.197 124.124 113.318 124.124 112.276C124.124 111.167 124.584 110.281 125.504 109.619C126.424 108.942 127.614 108.604 129.075 108.604C130.711 108.604 132.186 108.814 133.498 109.233V112.966H132.362L131.367 110.248C130.813 110.126 130.279 110.065 129.765 110.065C128.967 110.065 128.284 110.207 127.715 110.491C127.147 110.762 126.863 111.161 126.863 111.688C126.863 112.161 127.087 112.56 127.533 112.885C127.993 113.196 128.804 113.609 129.968 114.123L130.373 114.305C131.753 114.927 132.767 115.617 133.417 116.375C134.066 117.132 134.39 118.052 134.39 119.134C134.39 120.148 134.133 120.98 133.619 121.629C133.119 122.265 132.456 122.725 131.631 123.009C130.806 123.28 129.866 123.415 128.811 123.415C127.134 123.415 125.518 123.097 123.962 122.461ZM142.963 123.111V121.974L144.83 121.528V110.491L142.963 110.045V108.909H150.003V110.045L148.137 110.491V121.528L150.003 121.974V123.111H142.963ZM166.281 108.604C167.701 108.604 169.02 108.868 170.237 109.395V113.149H169.101L168.168 110.146C167.803 110.092 167.431 110.065 167.052 110.065C165.415 110.065 164.131 110.572 163.197 111.587C162.264 112.601 161.797 114.075 161.797 116.01C161.797 119.973 163.414 121.954 166.646 121.954C166.849 121.954 167.045 121.947 167.235 121.934V118.079L164.922 117.369V116.436H172.043V117.369L170.542 118.079V122.421C170.271 122.556 169.953 122.684 169.588 122.806C169.223 122.928 168.831 123.029 168.411 123.111C167.992 123.205 167.566 123.28 167.133 123.334C166.7 123.388 166.281 123.415 165.875 123.415C163.481 123.415 161.642 122.772 160.357 121.487C159.072 120.202 158.429 118.377 158.429 116.01C158.429 113.643 159.106 111.817 160.458 110.532C161.811 109.247 163.752 108.604 166.281 108.604ZM180.128 123.111V121.974L181.995 121.528V110.491L180.128 110.045V108.909H183.618L192.322 118.444V110.491L190.455 110.045V108.909H195.872V110.045L194.006 110.491V123.111H192.038L183.618 113.9V121.528L185.485 121.974V123.111H180.128ZM250.14 123.111V121.974L252.006 121.528V110.491L250.14 110.045V108.909H257.18V110.045L255.313 110.491V115.157H260.365V110.491L258.499 110.045V108.909H265.539V110.045L263.672 110.491V121.528L265.539 121.974V123.111H258.499V121.974L260.365 121.528V116.72H255.313V121.528L257.18 121.974V123.111H250.14ZM273.967 116.01C273.967 113.818 274.569 112.04 275.773 110.674C276.99 109.294 278.721 108.604 280.967 108.604C283.185 108.604 284.903 109.28 286.12 110.633C287.351 111.986 287.966 113.778 287.966 116.01C287.966 118.228 287.351 120.02 286.12 121.386C284.903 122.739 283.185 123.415 280.967 123.415C278.748 123.415 277.024 122.745 275.793 121.406C274.576 120.054 273.967 118.255 273.967 116.01ZM280.967 122.015C282.143 122.015 283.036 121.494 283.645 120.453C284.253 119.398 284.558 117.917 284.558 116.01C284.558 114.102 284.247 112.628 283.624 111.587C283.016 110.532 282.13 110.004 280.967 110.004C279.79 110.004 278.897 110.532 278.289 111.587C277.68 112.628 277.376 114.102 277.376 116.01C277.376 117.917 277.673 119.398 278.268 120.453C278.877 121.494 279.776 122.015 280.967 122.015ZM296.922 122.461V118.728H298.058L299.093 121.569C299.661 121.771 300.371 121.873 301.223 121.873C302.143 121.873 302.934 121.711 303.597 121.386C304.273 121.061 304.611 120.581 304.611 119.945C304.611 119.797 304.591 119.655 304.55 119.519C304.523 119.384 304.469 119.256 304.388 119.134C304.307 119.012 304.226 118.904 304.145 118.809C304.063 118.701 303.942 118.593 303.779 118.485C303.617 118.363 303.475 118.268 303.353 118.201C303.232 118.12 303.049 118.018 302.805 117.896C302.576 117.775 302.163 117.572 301.568 117.288L300.837 116.943C299.498 116.294 298.538 115.617 297.957 114.914C297.375 114.197 297.084 113.318 297.084 112.276C297.084 111.167 297.544 110.281 298.464 109.619C299.383 108.942 300.574 108.604 302.035 108.604C303.671 108.604 305.145 108.814 306.457 109.233V112.966H305.321L304.327 110.248C303.773 110.126 303.238 110.065 302.724 110.065C301.926 110.065 301.243 110.207 300.675 110.491C300.107 110.762 299.823 111.161 299.823 111.688C299.823 112.161 300.046 112.56 300.493 112.885C300.952 113.196 301.764 113.609 302.927 114.123L303.333 114.305C304.713 114.927 305.727 115.617 306.376 116.375C307.025 117.132 307.35 118.052 307.35 119.134C307.35 120.148 307.093 120.98 306.579 121.629C306.079 122.265 305.416 122.725 304.591 123.009C303.766 123.28 302.826 123.415 301.771 123.415C300.094 123.415 298.477 123.097 296.922 122.461ZM315.7 113.21V108.909H328.177V113.21H326.939L326.108 110.471H323.592V121.528L325.458 121.974V123.111H318.418V121.974L320.285 121.528V110.471H317.749L316.917 113.21H315.7ZM336.398 123.111V121.974L338.264 121.528V110.491L336.398 110.045V108.909H343.438V110.045L341.571 110.491V121.528L343.438 121.974V123.111H336.398ZM351.879 123.111V121.974L353.746 121.528V110.491L351.879 110.045V108.909H355.369L364.073 118.444V110.491L362.206 110.045V108.909H367.623V110.045L365.757 110.491V123.111H363.789L355.369 113.9V121.528L357.236 121.974V123.111H351.879ZM383.697 108.604C385.118 108.604 386.436 108.868 387.654 109.395V113.149H386.517L385.584 110.146C385.219 110.092 384.847 110.065 384.468 110.065C382.832 110.065 381.547 110.572 380.613 111.587C379.68 112.601 379.214 114.075 379.214 116.01C379.214 119.973 380.83 121.954 384.063 121.954C384.265 121.954 384.462 121.947 384.651 121.934V118.079L382.338 117.369V116.436H389.459V117.369L387.958 118.079V122.421C387.687 122.556 387.37 122.684 387.004 122.806C386.639 122.928 386.247 123.029 385.828 123.111C385.408 123.205 384.982 123.28 384.549 123.334C384.117 123.388 383.697 123.415 383.292 123.415C380.897 123.415 379.058 122.772 377.773 121.487C376.488 120.202 375.846 118.377 375.846 116.01C375.846 113.643 376.522 111.817 377.875 110.532C379.227 109.247 381.168 108.604 383.697 108.604Z" fill="white"/>
<path d="M215.809 119.743C215.809 118.038 216.837 116.693 218.893 115.705C218.244 114.975 217.777 114.326 217.493 113.757C217.209 113.176 217.067 112.547 217.067 111.871C217.067 110.856 217.432 110.058 218.163 109.477C218.906 108.895 219.934 108.604 221.246 108.604C222.531 108.604 223.539 108.915 224.269 109.537C225.013 110.146 225.385 110.897 225.385 111.79C225.385 113.25 224.398 114.508 222.423 115.563L225.426 118.525C225.669 117.944 225.845 117.288 225.953 116.557L224.736 116.111V114.995H229.098V116.111L227.374 116.557C227.211 117.653 226.914 118.647 226.481 119.54L228.51 121.467L230.762 121.995V123.111H226.542L225.04 121.67C223.904 122.833 222.47 123.415 220.739 123.415C219.184 123.415 217.973 123.097 217.108 122.461C216.242 121.826 215.809 120.919 215.809 119.743ZM218.589 119.601C218.589 120.304 218.812 120.865 219.258 121.285C219.704 121.69 220.3 121.893 221.044 121.893C222.261 121.893 223.262 121.501 224.046 120.716L219.968 116.821C219.048 117.606 218.589 118.532 218.589 119.601ZM219.664 111.647C219.664 111.945 219.725 112.236 219.846 112.52C219.968 112.79 220.144 113.068 220.374 113.352L221.368 114.427C222.315 113.67 222.788 112.763 222.788 111.708C222.788 111.167 222.646 110.741 222.362 110.43C222.078 110.119 221.693 109.964 221.206 109.964C220.746 109.964 220.374 110.112 220.09 110.41C219.806 110.707 219.664 111.12 219.664 111.647Z" fill="#753EED"/>
<path d="M39.7216 74.0012V19.1105M39.7216 19.1105L22.3877 36.4444M39.7216 19.1105L57.0555 36.4444" stroke="#753EED" stroke-width="10.1114" stroke-linecap="round" stroke-linejoin="round"/>
<path d="M22.3877 74.0018L22.3877 56.6679" stroke="#6346ED" stroke-width="10.1114" stroke-linecap="round"/>
<path d="M5.05566 74.136V72.5176V70.8992" stroke="#594BEC" stroke-width="10.1114" stroke-linecap="round"/>
</svg>
